<?xml version="1.0" encoding="utf-8"?>
<!-- Generator: Adobe Illustrator 22.0.0, SVG Export Plug-In . SVG Version: 6.00 Build 0)  -->
<svg version="1.1" id="Ebene_1" xmlns="http://www.w3.org/2000/svg" xmlns:xlink="http://www.w3.org/1999/xlink" x="0px" y="0px"
	 viewBox="0 0 96 48" style="enable-background:new 0 0 96 48;" xml:space="preserve">
<style type="text/css">
	.st0{fill:#FFFFFF;}
</style>
<path class="st0" d="M34,4L16.5,9.9H34V4z M73,35c-3.3,0-6,2.7-6,6s2.7,6,6,6s6-2.7,6-6S76.3,35,73,35z M73,44c-1.7,0-3-1.4-2.9-3.1
	c0-1.6,1.3-2.9,2.9-2.9c1.7,0,3,1.3,3,3S74.7,44,73,44z M26,35c-3.3,0-6,2.7-6,6s2.7,6,6,6s6-2.7,6-6S29.3,35,26,35z M26,44
	c-1.7,0-3-1.4-2.9-3.1c0-1.6,1.3-2.9,2.9-2.9c1.7,0,3,1.3,3,3S27.7,44,26,44z M55,35c-3.3,0-6,2.7-6,6s2.7,6,6,6s6-2.7,6-6
	S58.3,35,55,35L55,35z M55,44c-1.7,0-3-1.4-2.9-3.1c0-1.6,1.3-2.9,2.9-2.9c1.7,0,3,1.3,3,3S56.7,44,55,44L55,44z M82.5,31H73v-2H59
	v2H34V11H16.3L11,26.3V39l3.6,2H18c0-4.4,3.6-8,8-8c4.4,0,8,3.6,8,8c0,0,0,0,0,0h13c0-4.4,3.6-8,8-8c4.4,0,8,3.6,8,8c0,0,0,0,0,0h2
	c0-4.4,3.6-8,8-8c4.4,0,8,3.6,8,8c0,0,0,0,0,0h4.9C85.9,41,82.5,31,82.5,31z M25,22H14l3.3-9c0,0,7.7,0,7.7,0V22z"/>
</svg>
