<?xml version="1.0" encoding="utf-8"?>
<!-- Generator: Adobe Illustrator 22.0.0, SVG Export Plug-In . SVG Version: 6.00 Build 0)  -->
<svg version="1.1" id="Ebene_1" xmlns="http://www.w3.org/2000/svg" xmlns:xlink="http://www.w3.org/1999/xlink" x="0px" y="0px"
	 viewBox="0 0 96 48" style="enable-background:new 0 0 96 48;" xml:space="preserve">
<style type="text/css">
	.st0{fill:#FFFFFF;}
</style>
<path class="st0" d="M12.6,14.8L27,8v6.8L12.6,14.8z M11.2,27.5L24,25.2l0-7.1c0,0-10,0-10,0S11.2,27.5,11.2,27.5z M27,31h62v7.6
	L79.4,42c-0.1-4.1-3.4-7.6-7.4-7.6s-7.4,3.5-7.4,7.6H33.3c0-4.1-3.3-7.6-7.4-7.6s-7.4,3.5-7.4,7.6h-6.9L8,40.2V28.7l4.5-12.6H27V31z
	"/>
<path class="st0" d="M68.9,41.6c0,1.7,1.4,3,3.1,3c1.7,0,3-1.4,3-3c0-1.7-1.4-3.1-3.1-3.1S68.9,39.9,68.9,41.6L68.9,41.6z
	 M66.6,41.6c0-3,2.4-5.4,5.4-5.4c3,0,5.4,2.4,5.4,5.4l0,0c0,3-2.4,5.4-5.4,5.4C69,47,66.6,44.6,66.6,41.6z M22.9,41.8
	c-0.1,1.7,1.3,3.1,3,3.2c1.7,0.1,3.1-1.3,3.2-3c0-0.1,0-0.1,0-0.2c-0.1-1.7-1.5-3-3.2-3C24.2,38.8,22.9,40.1,22.9,41.8z M20.5,41.8
	c0-3,2.4-5.4,5.4-5.4s5.4,2.4,5.4,5.4c0,3-2.4,5.4-5.4,5.4S20.5,44.7,20.5,41.8z M84,7c2.1,0,5,1.7,5,3.8V29H29.1V7H84z"/>
</svg>
