<?xml version="1.0" encoding="utf-8"?>
<!-- Generator: Adobe Illustrator 22.0.0, SVG Export Plug-In . SVG Version: 6.00 Build 0)  -->
<svg version="1.1" id="Ebene_1" xmlns="http://www.w3.org/2000/svg" xmlns:xlink="http://www.w3.org/1999/xlink" x="0px" y="0px"
	 viewBox="0 0 96 48" style="enable-background:new 0 0 96 48;" xml:space="preserve">
<style type="text/css">
	.st0{fill:#FFFFFF;}
</style>
<path class="st0" d="M6,13v21h84V13H6z M47,39c-2.2,0-4,1.8-4,4c0,2.2,1.8,4,4,4s4-1.8,4-4C51,40.8,49.2,39,47,39z M47,45
	c-1.1,0-2-0.8-2.1-1.9s0.8-2,1.9-2.1c0,0,0.1,0,0.1,0c1.1,0,2,1,1.9,2.1C48.9,44.1,48.1,45,47,45z M9,37h4v1.9h4V37h15.6
	c0.9,1.4,2.1,3.1,2.6,4.9l6.2,0C41.6,39.2,44,37,47,37c3,0,5.5,2.2,5.5,4.9l2,0c0-2.7,2.5-4.9,5.5-4.9c3,0,5.5,2.2,5.5,5l2,0
	c0-2.8,2.5-5,5.5-5c3,0,5.4,2.2,5.5,4.9C80.8,41.5,90,40,90,40v-5L9,35.1V37z M73,39c-2.2,0-4,1.8-4,4c0,2.2,1.8,4,4,4s4-1.8,4-4
	C77,40.8,75.2,39,73,39z M73,45c-1.1,0-2-0.8-2.1-1.9c0-1.1,0.8-2,1.9-2.1c0,0,0.1,0,0.1,0c1.1,0,2,1,1.9,2.1
	C74.9,44.1,74.1,45,73,45z M60,39c-2.2,0-4,1.8-4,4c0,2.2,1.8,4,4,4s4-1.8,4-4C64,40.8,62.2,39,60,39z M60,45c-1.1,0-2-0.8-2.1-1.9
	s0.8-2,1.9-2.1c0,0,0.1,0,0.1,0c1.1,0,2,1,1.9,2.1C61.9,44.1,61.1,45,60,45z"/>
</svg>
