<?xml version="1.0" encoding="utf-8"?>
<!-- Generator: Adobe Illustrator 22.0.0, SVG Export Plug-In . SVG Version: 6.00 Build 0)  -->
<svg version="1.1" id="Ebene_1" xmlns="http://www.w3.org/2000/svg" xmlns:xlink="http://www.w3.org/1999/xlink" x="0px" y="0px"
	 viewBox="0 0 96 48" style="enable-background:new 0 0 96 48;" xml:space="preserve">
<style type="text/css">
	.st0{fill:#FFFFFF;}
</style>
<path class="st0" d="M80.2,27.9H78L76.5,25H63l-3.2,3H54l-1.2-7H46l-0.9-3.2L25.5,0.7L9.1,13.4l-1.5,0.1l-0.3,2.1
	c-13.6,0.7-1.1,12,1.1,15c0,0-1.5-6.9-0.2-8.5c1.3-1.6,2.3-3.6,2.3-3.6l14-11.6l16.1,11.5l1.4,3.4v14.4l2,1.7h4l2,2h13l1.5-2h15.7
	l1.7-1.4v-5.2C82,31.4,80.2,27.9,80.2,27.9z M9.9,17.2v-3.3l13-8.8L9.9,17.2z M51,28h-6l1-5h5V28z M76,41H44c-1.7,0-3,1.3-3,3
	c0,1.7,2.4,3,4,3h30c1.6,0,4-1.3,4-3C79,42.3,77.7,41,76,41z M76,45H44c-0.8,0-0.9-0.7-1-1c0-0.5,0.5-1,1-1h32c0.5,0,1,0.4,1,1
	C76.9,44.3,76.8,45,76,45z"/>
</svg>
